<?xml version="1.0" encoding="UTF-8"?>
<svg id="Layer_2" data-name="Layer 2" xmlns="http://www.w3.org/2000/svg" viewBox="0 0 1897.47 486.89">
  <defs>
    <style>
      .cls-1 {
        fill: none;
        stroke: #000;
        stroke-linecap: round;
        stroke-linejoin: round;
        stroke-width: 16px;
      }
    </style>
  </defs>
  <g id="Layer_1-2" data-name="Layer 1">
    <g>
      <polyline class="cls-1" points="205.63 64.95 178.49 64.95 178.49 116.41 104.1 116.41 104.1 195.35 66.21 195.35 66.21 269.87 167.26 269.87 167.26 321.8"/>
      <polyline class="cls-1" points="54.94 324.84 119.07 324.84 119.07 370.83 218.87 370.83 218.87 232.82"/>
      <polyline class="cls-1" points="170.54 370.83 170.54 418.55 125.32 418.55"/>
      <line class="cls-1" x1="218.87" y1="204.82" x2="291.25" y2="204.82"/>
      <path class="cls-1" d="M257.08,241.38v179.98"/>
      <line class="cls-1" x1="257.08" y1="115.38" x2="257.08" y2="32.66"/>
      <path class="cls-1" d="M170.54,197.29h16.84c1.35,17.5-10.25,31.8-22.93,33.65-14.81,2.15-32.62-12.46-31.92-33.65.33-3.46,1.61-11.97,8.06-20.16,7.09-9,16.1-12.14,19.36-13.1h193.72c3.26.96,12.28,4.1,19.36,13.1,6.44,8.19,7.73,16.69,8.06,20.16.7,21.19-17.11,35.8-31.92,33.65-12.68-1.84-24.27-16.15-22.93-33.65h16.84"/>
      <polyline class="cls-1" points="308.01 64.95 335.15 64.95 335.15 116.41 409.54 116.41 409.54 195.35 447.44 195.35 447.44 269.87 346.38 269.87 346.38 321.8"/>
      <polyline class="cls-1" points="458.7 324.84 394.57 324.84 394.57 370.83 294.77 370.83 294.77 232.82"/>
      <polyline class="cls-1" points="343.1 370.83 343.1 418.55 388.32 418.55"/>
      <path class="cls-1" d="M501.29,318.06c-13.1,37.29-46.12,50.95-51,52.86,1.24,45.45-24.6,86.12-63.62,101.54-45.37,17.91-86.71-6.91-91.38-9.83v-41.18h-38.21v-.08h-38.21v41.16c-4.67,2.91-46.01,27.75-91.38,9.83-39.03-15.41-64.86-56.07-63.63-101.52-4.87-1.91-37.89-15.57-50.99-52.87-12.85-36.56,3.48-67.3,6.07-71.99-2.8-6.24-11.72-28.12-4.67-55.26,7.12-27.45,25.88-42.3,31.35-46.33-5.26-24.68,2.74-50.03,21.06-65.97,22.06-19.19,49.04-16.01,53.32-15.43,1.25-3.41,15.89-41.63,57.09-52.4,44.98-11.76,78.49,20.51,79.99,21.99v.1c1.48-1.5,34.99-33.75,79.99-21.99,41.19,10.76,55.84,48.98,57.08,52.39,4.29-.58,31.28-3.75,53.34,15.45,18.32,15.94,26.3,41.29,21.06,65.97,5.47,4.03,24.23,18.87,31.35,46.32,7.04,27.14-1.88,49.02-4.69,55.26,2.6,4.7,18.92,35.44,6.09,72Z"/>
      <path class="cls-1" d="M257.08,421.36v-179.89"/>
      <polyline class="cls-1" points="257.08 32.66 257.08 115.38 257.08 115.46"/>
    </g>
    <g>
      <path d="M683.17,107.4c-1.9,3.13-4.5,7.86-7.81,14.21-1.04,2.94-2.89,7.1-5.54,12.5-.57.85-1.33,1.28-2.27,1.28.09,0-4.48-1.68-13.71-5.04-9.24-3.36-16.84-5.04-22.81-5.04-17.43,0-26.14,7.67-26.14,23.02,0,8.53,6.11,15.96,18.33,22.31,20.55,10.71,31.92,16.86,34.1,18.47,12.22,9.76,18.33,22.93,18.33,39.5,0,21.22-8.38,37.94-25.15,50.16-15.06,10.99-33.58,16.48-55.56,16.48-10.23,0-15.73-1.14-16.48-3.41-.38-3.6-1.23-8.86-2.56-15.77-.76-2.84-1.94-7.1-3.55-12.79-.28-.85-.43-1.66-.43-2.42,0-1.33.71-1.99,2.13-1.99,2.27,0,5.75.24,10.44.71,4.69.48,8.22.71,10.59.71,29.36,0,44.05-9.47,44.05-28.42,0-9.28-5.92-17.33-17.76-24.16-21.6-12.31-32.63-18.71-33.11-19.18-11.94-9.66-17.9-22.64-17.9-38.93,0-17.62,5.78-31.73,17.33-42.34,11.27-10.23,25.86-15.35,43.76-15.35,7.58,0,16.29,1.23,26.14,3.69,10.7,2.75,18.76,6.06,24.16,9.95.47.38.95.99,1.42,1.85Z"/>
      <path d="M862.48,285.72c0,4.45-1.37,6.68-4.12,6.68h-32.68c-2.75,0-9.9-10.09-21.46-30.27-9.76-17.05-16.25-29.36-19.47-36.94-3.22-7.29-5.07-11.37-5.54-12.22-2.84-4.74-6.16-7.25-9.95-7.53-1.14-.09-4.31-.14-9.52-.14-11.94,0-17.9,1.47-17.9,4.4,0,8.72.31,21.74.92,39.07.61,17.33.92,30.31.92,38.93,0,3.13-1.19,4.69-3.55,4.69-1.8,0-4.5-.14-8.1-.43-3.6-.28-6.3-.43-8.1-.43-1.71,0-4.24.14-7.6.43-3.36.28-5.9.43-7.6.43-2.37,0-3.55-1.09-3.55-3.27,0-10.42.5-26.07,1.49-46.96.99-20.89,1.49-36.54,1.49-46.96,0-10.99-.5-27.49-1.49-49.52-1-22.02-1.49-38.53-1.49-49.52,0-2.08,1.18-3.13,3.55-3.13,1.71,0,4.31.14,7.81.43,3.5.28,6.16.43,7.96.43,1.71,0,4.26-.14,7.67-.43s5.97-.43,7.67-.43c2.18,0,3.27.85,3.27,2.56,0,8.05-.26,20.18-.78,36.38-.52,16.2-.78,28.37-.78,36.52,0,3.69.24,6.02.71,6.96.76,1.71,2.7,2.56,5.83,2.56,18.38,0,31.83-3.41,40.35-10.23,7.29-6.06,14.21-17.19,20.75-33.39,4.74-12.69,9.47-25.39,14.21-38.08.66-1.61,2.13-2.7,4.4-3.27,1.51-.38,6.54-.57,15.06-.57,10.42,0,15.63,1.47,15.63,4.4,0,1.71-2.18,9.38-6.54,23.02-5.12,15.91-11.75,29.93-19.89,42.06-5.4,8.24-12.55,16.53-21.46,24.87-2.27,1.99-3.41,3.79-3.41,5.4,0,1.71,3.84,10.18,11.51,25.43,6.63,13.17,12.65,23.73,18.05,31.69,5.97,7.3,14.3,18.52,25.01,33.68.47.85.71,1.75.71,2.7Z"/>
      <path d="M917.76,289.42c0,1.99-1.37,2.98-4.12,2.98-1.71,0-4.31-.14-7.82-.43s-6.11-.43-7.81-.43c-1.8,0-4.45.14-7.96.43-3.51.28-6.11.43-7.81.43-2.37,0-3.55-1.09-3.55-3.27,0-10.8.5-27.07,1.49-48.81.99-21.74,1.49-38.06,1.49-48.95s-.5-26.31-1.49-47.39c-1-21.08-1.49-36.87-1.49-47.39,0-2.37,1.09-3.55,3.27-3.55,1.8,0,4.55.14,8.24.43,3.69.28,6.49.43,8.38.43,1.71,0,4.26-.14,7.67-.43s5.97-.43,7.67-.43c2.46,0,3.7.95,3.7,2.84,0,10.61-.38,26.52-1.14,47.74-.76,21.22-1.14,37.13-1.14,47.74s.4,27.23,1.21,49.02c.8,21.79,1.21,38.13,1.21,49.02Z"/>
      <path d="M1081.59,261.57c0,13.26-.71,22.69-2.13,28.28-.66,2.75-2.32,4.12-4.97,4.12-7.01,0-17.53-.4-31.54-1.21-14.02-.8-24.53-1.21-31.54-1.21-6.63,0-16.53.14-29.7.43-13.17.28-23.07.43-29.7.43-2.37,0-3.55-1.18-3.55-3.55,0-10.32.36-25.91,1.07-46.75.71-20.84,1.07-36.47,1.07-46.89,0-10.99-.5-27.45-1.49-49.38-1-21.93-1.49-38.39-1.49-49.38,0-2.08,1.18-3.13,3.55-3.13,1.71,0,4.31.14,7.81.43,3.5.28,6.16.43,7.96.43,1.71,0,4.36-.14,7.96-.43,3.6-.28,6.25-.43,7.96-.43,2.27,0,3.41.9,3.41,2.7,0,10.04-.38,25.15-1.14,45.33-.76,20.18-1.14,35.33-1.14,45.47v22.45c-.1,10.04-.14,17.53-.14,22.45,0,21.03.85,31.54,2.56,31.54,34.95,0,61.33-.85,79.14-2.56.85-.09,3.03-.43,6.54-.99,2.84-.57,5.02-.85,6.54-.85,1.99,0,2.98.9,2.98,2.7Z"/>
      <path d="M1232.06,261.57c0,13.26-.71,22.69-2.13,28.28-.66,2.75-2.32,4.12-4.97,4.12-7.01,0-17.53-.4-31.54-1.21-14.02-.8-24.53-1.21-31.54-1.21-6.63,0-16.53.14-29.7.43-13.17.28-23.07.43-29.7.43-2.37,0-3.55-1.18-3.55-3.55,0-10.32.36-25.91,1.07-46.75.71-20.84,1.07-36.47,1.07-46.89,0-10.99-.5-27.45-1.49-49.38-1-21.93-1.49-38.39-1.49-49.38,0-2.08,1.18-3.13,3.55-3.13,1.71,0,4.31.14,7.81.43,3.5.28,6.16.43,7.96.43,1.71,0,4.36-.14,7.96-.43,3.6-.28,6.25-.43,7.96-.43,2.27,0,3.41.9,3.41,2.7,0,10.04-.38,25.15-1.14,45.33-.76,20.18-1.14,35.33-1.14,45.47v22.45c-.1,10.04-.14,17.53-.14,22.45,0,21.03.85,31.54,2.56,31.54,34.95,0,61.33-.85,79.14-2.56.85-.09,3.03-.43,6.54-.99,2.84-.57,5.02-.85,6.54-.85,1.99,0,2.98.9,2.98,2.7Z"/>
      <path d="M1380.69,119.91c0,2.46-.85,3.69-2.56,3.69-2.65,0-19.42-.57-50.3-1.71-.85,28.89-1.28,52.05-1.28,69.48,0,10.89.4,27.23,1.21,49.02.8,21.79,1.21,38.13,1.21,49.02,0,1.99-1.37,2.98-4.12,2.98-1.71,0-4.31-.14-7.82-.43-3.51-.28-6.16-.43-7.96-.43-1.71,0-4.31.14-7.82.43-3.5.28-6.11.43-7.81.43-2.37,0-3.55-1.18-3.55-3.55,0-10.8.45-27.02,1.35-48.67.9-21.64,1.35-37.91,1.35-48.81,0-16.86-.52-40.02-1.56-69.48-24.44,1.52-42.34,2.27-53.71,2.27-1.14,0-1.71-.47-1.71-1.42,0-1.71.43-4.17,1.28-7.39,1.04-4.17,1.66-6.63,1.85-7.39.19-3.31.85-7.91,1.99-13.78.47-1.23,1.28-1.85,2.42-1.85l1.71.14c33.53,1.99,55.65,2.98,66.36,2.98,9.47,0,24.96-.71,46.46-2.13,14.68-.95,20.79-1.42,18.33-1.42,2.46,0,3.84.85,4.12,2.56-.19-1.04-.28,3.55-.28,13.78,0,1.23.14,3.15.43,5.75.29,2.61.43,4.57.43,5.9Z"/>
      <path d="M1560.71,96.18c0,10.99-.45,27.45-1.35,49.38-.9,21.93-1.35,38.39-1.35,49.38,0,3.6.05,8.98.14,16.13.09,7.15.14,12.48.14,15.99,0,19.8-1.85,33.53-5.54,41.21-5.68,11.75-16.72,19.7-33.11,23.87-10.04,2.56-24.21,3.84-42.49,3.84-33.16,0-54.9-5.49-65.22-16.48-7.96-8.53-11.94-25.58-11.94-51.15,0-3.13.05-8.41.14-15.84.09-7.44.14-13.29.14-17.55,0-11.18-.48-31.78-1.42-61.81,0-7.77-.43-19.37-1.28-34.81-.1-1.14-.14-1.89-.14-2.27,0-1.99,1.23-2.98,3.69-2.98,3.88,0,9.14.05,15.77.14,7.67.1,12.88.14,15.63.14,2.18,0,3.27.85,3.27,2.56,0,14.4-.31,36.04-.92,64.94-.62,28.89-.92,50.54-.92,64.94,0,16.29,3.65,27.33,10.94,33.11,6.25,5.12,17.76,7.67,34.53,7.67,15.25,0,26.1-2.08,32.54-6.25,8.15-5.21,12.22-14.97,12.22-29.27s-.24-37.44-.71-67.42c-.48-29.98-.71-52.45-.71-67.42,0-1.51,1.37-2.46,4.12-2.84,1.99-.28,4.83-.28,8.53,0,4.36.38,6.44.57,6.25.57,1.71,0,4.29-.14,7.74-.43,3.46-.28,6.04-.43,7.74-.43,2.37,0,3.55,1.04,3.55,3.13Z"/>
      <path d="M1743.58,291.27c0,.76-.76,1.14-2.27,1.14-1.8,0-4.55-.14-8.24-.43-3.69-.28-6.44-.43-8.24-.43-1.99,0-4.95.14-8.88.43-3.93.28-6.89.43-8.88.43-2.18,0-3.84-1.18-4.97-3.55-3.03-6.44-11.65-26.38-25.86-59.82-1.42-3.41-4.88-5.49-10.37-6.25-1.23-.09-5.54-.14-12.93-.14-13.07,0-20.84.19-23.3.57-1.99.28-2.98,2.7-2.98,7.25,0,6.63.31,16.55.92,29.77.61,13.21.92,23.09.92,29.63,0,1.99-.95,2.98-2.84,2.98s-4.76-.21-8.6-.64c-3.84-.43-6.75-.64-8.74-.64-1.61,0-4.07.14-7.39.43-3.32.28-5.78.43-7.39.43-2.37,0-3.55-1.09-3.55-3.27,0-10.51.5-26.31,1.49-47.39.99-21.08,1.49-36.87,1.49-47.39,0-29.93-1.09-61.86-3.27-95.77l-.14-2.27c-.1-1.89,1.89-2.84,5.97-2.84,8.15,0,20.34-.21,36.59-.64,16.24-.43,28.39-.64,36.45-.64,21.03,0,37.89,5.02,50.58,15.06,14.02,11.08,21.03,26.81,21.03,47.17,0,14.02-1.9,25.06-5.68,33.11-3.98,8.53-11.37,16.62-22.17,24.3-1.8,1.23-2.7,2.42-2.7,3.55,0,1.33,5.66,13.92,16.98,37.8,11.32,23.87,16.98,36.57,16.98,38.08ZM1704.65,162.39c0-17.14-4.93-28.61-14.78-34.39-7.29-4.26-20.41-6.39-39.36-6.39-15.35,0-23.16,1.23-23.44,3.69-.66,5.12-1,18.8-1,41.06v27.14c.28.19.9.38,1.85.57,1.71.19,4.5.43,8.38.71,9,.48,18.71.71,29.13.71,26.14,0,39.22-11.03,39.22-33.11Z"/>
      <path d="M1897.47,263.84c0,1.52-.38,3.69-1.14,6.54-.85,3.6-1.37,5.78-1.56,6.54-.28,3.41-.95,8.38-1.99,14.92-.48,1.71-1.71,2.56-3.69,2.56-.95,0-2.75-.19-5.4-.57-11.65-1.71-29.7-2.56-54.14-2.56-6.92,0-17.34.19-31.26.57-13.93.38-24.35.57-31.26.57-3.13,0-4.69-1.37-4.69-4.12,0-10.61.59-26.55,1.78-47.81,1.18-21.26,1.78-37.2,1.78-47.81s-.57-30.93-1.71-60.39c-.19-7.58-.71-18.9-1.56-33.96l-.14-1.99c-.1-2.18,1.14-3.27,3.69-3.27,6.63,0,16.58.19,29.84.57,13.26.38,23.21.57,29.84.57s15.84-.19,28.49-.57c12.65-.38,22.14-.57,28.49-.57,4.45,0,6.87,1.37,7.25,4.12,1.99,12.5,2.98,20.27,2.98,23.3,0,2.18-1.04,3.27-3.13,3.27-8.05,0-20.25-.45-36.59-1.35-16.34-.9-28.63-1.35-36.87-1.35-7.77,0-12.67,1.04-14.71,3.13-2.04,2.08-3.05,7.25-3.05,15.49v21.17c0,5.78.14,9.14.43,10.09.85,2.94,3.32,4.4,7.39,4.4,1.14,0,2.75-.05,4.83-.14h4.83c18.57,0,35.24-.33,50.02-.99,5.78-.19,12.6-.66,20.46-1.42,1.99-.19,2.98.66,2.98,2.56,0,3.03-.36,7.67-1.07,13.92-.71,6.25-1.07,10.94-1.07,14.07,0,1.71-1.42,2.56-4.26,2.56-1.14,0-5.35-.33-12.65-.99-5.31-.57-17.24-.85-35.81-.85-15.63,0-25.53.19-29.7.57-3.79.28-5.97,2.27-6.54,5.97.09-.66.14,2.98.14,10.94v21.03c0,9.85,1.51,16.01,4.55,18.47,2.37,1.99,8.29,2.98,17.76,2.98l15.63-.14c6.63,0,25.24-1.14,55.84-3.41l2.13-.14c1.89-.19,2.84.99,2.84,3.55Z"/>
    </g>
    <g>
      <path d="M661.74,358.41c0,.28-3.45,7.66-10.35,22.15-2.31,5.04-5.85,12.56-10.61,22.57-.45.93-.91,1.4-1.4,1.4h-9.32c-.66,0-1.19-.46-1.6-1.4-2.55-6-6.23-15.46-11.02-28.36-2.38,6.35-6.09,15.8-11.13,28.36-.38.93-.9,1.4-1.55,1.4h-9.26c-.52,0-1-.46-1.45-1.4-2.38-5-5.95-12.53-10.71-22.57-6.59-13.73-9.89-21.12-9.89-22.15,0-2.83.09-7.09.26-12.79.17-5.69.26-9.95.26-12.78,0-.62.43-.93,1.29-.93.62,0,1.56.05,2.82.15,1.26.1,2.2.16,2.82.16.59,0,1.47-.04,2.64-.1,1.17-.07,2.05-.1,2.64-.1.72,0,1.09.26,1.09.78,0,2.79-.16,7.01-.49,12.66-.33,5.64-.49,9.86-.49,12.66,0,1.76,3.48,9.73,10.46,23.91,2.31,4.69,3.57,7.04,3.78,7.04.07-.04.16-.16.26-.36.41-.79,1.29-3,2.64-6.62,2.48-6.73,5.04-14.37,7.66-22.93.1-.86.16-3.59.16-8.18,0-2.04-.06-5.08-.18-9.14-.12-4.05-.18-7.1-.18-9.14,0-.52.36-.78,1.09-.78.66,0,1.64.05,2.95.15,1.31.1,2.31.16,3,.16.59,0,1.47-.05,2.64-.16,1.17-.1,2.05-.15,2.64-.15.79,0,1.19.28,1.19.83,0,2.17-.07,5.44-.21,9.81-.14,4.37-.21,7.63-.21,9.81,0,3.55.02,5.71.05,6.47.1,1.72,2.71,9.3,7.82,22.72.55,1.52,1.45,3.69,2.69,6.52.03.14.1.26.21.36.21,0,1.43-2.29,3.67-6.88,6.8-13.9,10.2-21.75,10.2-23.55,0-2.83-.16-7.06-.47-12.68-.31-5.62-.47-9.83-.47-12.63,0-.52.14-.78.41-.78.69,0,1.72.05,3.08.15,1.36.1,2.39.16,3.08.16.62,0,1.57-.05,2.85-.16,1.28-.1,2.24-.15,2.9-.15.72,0,1.14.21,1.24.62,0-.04,0,.45,0,1.45,0,2.73.09,6.8.26,12.21.17,5.42.26,9.49.26,12.21Z"/>
      <path d="M719.34,402.71c0,1.28-.36,1.91-1.09,1.91-1.07,0-2.69-.02-4.87-.05-2.17-.04-3.8-.05-4.87-.05-.86,0-1.29-.57-1.29-1.71,0-1.66.06-4.16.18-7.51.12-3.35.18-5.87.18-7.56,0-1.59-.06-3.99-.18-7.22-.12-3.23-.18-5.65-.18-7.27,0-6.21-2.93-9.32-8.8-9.32-1.9,0-4.38.95-7.45,2.85-3.28,2.04-4.92,3.9-4.92,5.59v30.74c0,1-.36,1.5-1.09,1.5-1.07,0-2.67-.02-4.81-.05-2.14-.04-3.74-.05-4.81-.05-.79,0-1.19-.46-1.19-1.4v-25c0-4.07-.22-12.73-.67-25.98-.07-4.11-.36-10.18-.88-18.22-.07-.41-.1-.69-.1-.83,0-.59.21-.95.62-1.09.59-.21,2.54-.31,5.85-.31.72,0,1.81-.13,3.26-.39s2.5-.39,3.16-.39c.45,0,.67.33.67.98,0,3.24-.13,8.12-.39,14.62s-.39,11.38-.39,14.62c0,.79.14,1.21.41,1.24,1.76-1.48,4.04-3.28,6.83-5.38,3.38-2.1,6.95-3.16,10.71-3.16,6.49,0,10.96,1.93,13.41,5.8,1.76,2.83,2.64,7.31,2.64,13.46,0,1.07-.03,2.72-.08,4.94s-.08,3.87-.08,4.94c0,2.21.03,5.5.1,9.89.07,4.38.1,7.66.1,9.83Z"/>
      <path d="M777.14,376.73c0,2.55-1.1,4.26-3.31,5.12-1.48.55-12.16,1.57-32.04,3.05.45,3.04,2.12,5.62,5.02,7.76,2.76,2.04,5.73,3.05,8.9,3.05,5.45,0,10.46-1.76,15.01-5.28.55-.45,1.1-.9,1.66-1.35.28,0,.46.04.54.1.09.07.73,1.27,1.94,3.6,1.21,2.33,1.81,3.58,1.81,3.75,0,.21-.28.6-.83,1.19-5.07,5.38-11.58,8.07-19.51,8.07s-14.39-2.39-19.15-7.17c-4.76-4.78-7.14-11.15-7.14-19.12,0-7.11,2.28-13.3,6.83-18.58,4.8-5.49,10.68-8.23,17.65-8.23,6.49,0,11.9,2.38,16.25,7.14,4.24,4.62,6.37,10.25,6.37,16.87ZM764.82,373.57c0-2.86-1.13-5.4-3.39-7.61-2.26-2.21-4.81-3.31-7.63-3.31-3.17,0-6,1.28-8.46,3.83-2.47,2.55-3.7,5.42-3.7,8.59,0,.72.62,1.09,1.86,1.09,5.11,0,11.21-.52,18.32-1.55,2-.28,3-.62,3-1.04Z"/>
      <path d="M818.02,355.92c0,3.79-.26,7.25-.78,10.35-.1.79-.45,1.19-1.04,1.19-.72,0-1.82-.08-3.29-.23-1.47-.16-2.58-.23-3.34-.23-4.35,0-7.13,1.22-8.33,3.67-.72,1.48-1.09,4.57-1.09,9.27v5.69c0,1.93.08,4.87.23,8.8s.23,6.87.23,8.8c0,.93-.4,1.4-1.19,1.4-1.07,0-2.69-.02-4.87-.05-2.17-.04-3.8-.05-4.87-.05-.79,0-1.19-.43-1.19-1.29,0-2.79.04-7,.13-12.63.09-5.62.13-9.85.13-12.68,0-8.52-.79-15.37-2.38-20.55-.07-.28-.1-.48-.1-.62,0-.41.22-.71.67-.88,1.28-.14,3.07-.34,5.38-.62,3.73-.69,5.45-1.04,5.18-1.04.55,0,.91,1.02,1.09,3.05.17,2.04.48,3.05.93,3.05.07,0,.16-.03.26-.1,1.41-.9,2.83-1.79,4.24-2.69,1.55-.93,3.14-1.62,4.76-2.07,1.35-.41,3.07-.62,5.18-.62,2.69,0,4.04.36,4.04,1.09Z"/>
      <path d="M871.58,376.73c0,2.55-1.1,4.26-3.31,5.12-1.48.55-12.16,1.57-32.04,3.05.45,3.04,2.12,5.62,5.02,7.76,2.76,2.04,5.73,3.05,8.9,3.05,5.45,0,10.46-1.76,15.01-5.28.55-.45,1.1-.9,1.66-1.35.28,0,.46.04.54.1.09.07.73,1.27,1.94,3.6,1.21,2.33,1.81,3.58,1.81,3.75,0,.21-.28.6-.83,1.19-5.07,5.38-11.58,8.07-19.51,8.07s-14.39-2.39-19.15-7.17c-4.76-4.78-7.14-11.15-7.14-19.12,0-7.11,2.28-13.3,6.83-18.58,4.8-5.49,10.68-8.23,17.65-8.23,6.49,0,11.9,2.38,16.25,7.14,4.24,4.62,6.37,10.25,6.37,16.87ZM859.26,373.57c0-2.86-1.13-5.4-3.39-7.61-2.26-2.21-4.81-3.31-7.63-3.31-3.17,0-6,1.28-8.46,3.83-2.47,2.55-3.7,5.42-3.7,8.59,0,.72.62,1.09,1.86,1.09,5.11,0,11.21-.52,18.32-1.55,2-.28,3-.62,3-1.04Z"/>
      <path d="M925.33,403.44c0,.72-.5,1.09-1.5,1.09-.62,0-1.57-.05-2.85-.15-1.28-.1-2.23-.16-2.85-.16-.66,0-1.62.05-2.9.16-1.28.1-2.23.15-2.85.15-.86,0-1.29-.4-1.29-1.19,0-3.93.18-9.86.54-17.78.36-7.92.54-13.86.54-17.83s-.18-9.58-.54-17.26c-.36-7.68-.54-13.43-.54-17.26,0-.86.4-1.29,1.19-1.29.66,0,1.66.05,3,.15s2.36.16,3.05.16c.62,0,1.55-.05,2.79-.16s2.17-.15,2.79-.15c.9,0,1.35.34,1.35,1.04,0,3.86-.14,9.66-.41,17.39-.28,7.73-.41,13.53-.41,17.39s.15,9.92.44,17.86c.29,7.94.44,13.89.44,17.86Z"/>
      <path d="M989.87,332.32c0,4.45-.2,11.12-.59,20-.4,8.88-.6,15.54-.6,19.95,0,13.63.29,23.95.88,30.95l.05.67c.03.35-.43.57-1.4.67-.66.07-1.59.07-2.79,0-1.45-.1-2.12-.16-2.02-.16-.52,0-1.28.05-2.28.16-1,.1-1.76.15-2.28.15-.48,0-.77-1.2-.85-3.6-.09-2.4-.22-3.61-.39-3.65-.21.1-.47.33-.78.67-4.73,5.11-10.16,7.66-16.3,7.66-6.97,0-12.7-2.66-17.18-7.97-4.24-5-6.37-11.04-6.37-18.12s2.14-13.53,6.42-18.53c4.49-5.25,10.33-7.87,17.55-7.87,4.35,0,8.14,1.28,11.39,3.83,1.48,1.28,2.95,2.57,4.4,3.88.28-.1.41-.34.41-.72v-16.77c0-1.14-.05-2.86-.16-5.18-.1-2.31-.16-4.05-.16-5.23,0-.83.28-1.24.83-1.24,1.28,0,3.17-.11,5.69-.34,2.52-.22,4.4-.34,5.64-.34.59,0,.88.36.88,1.09ZM976.93,379.42c0-4.14-1.28-7.78-3.83-10.92-2.73-3.35-6.11-5.02-10.14-5.02-4.24,0-7.75,1.66-10.51,4.97-2.62,3.11-3.93,6.83-3.93,11.18s1.36,7.75,4.09,10.82c2.79,3.24,6.25,4.87,10.35,4.87s7.56-1.64,10.25-4.92c2.48-3.07,3.73-6.73,3.73-10.97Z"/>
      <path d="M1046.95,376.73c0,2.55-1.1,4.26-3.31,5.12-1.48.55-12.16,1.57-32.04,3.05.45,3.04,2.12,5.62,5.02,7.76,2.76,2.04,5.73,3.05,8.9,3.05,5.45,0,10.46-1.76,15.01-5.28.55-.45,1.1-.9,1.66-1.35.28,0,.46.04.54.1.08.07.73,1.27,1.94,3.6,1.21,2.33,1.81,3.58,1.81,3.75,0,.21-.28.6-.83,1.19-5.07,5.38-11.58,8.07-19.51,8.07s-14.39-2.39-19.15-7.17c-4.76-4.78-7.14-11.15-7.14-19.12,0-7.11,2.28-13.3,6.83-18.58,4.8-5.49,10.68-8.23,17.65-8.23,6.49,0,11.9,2.38,16.25,7.14,4.24,4.62,6.37,10.25,6.37,16.87ZM1034.63,373.57c0-2.86-1.13-5.4-3.39-7.61-2.26-2.21-4.81-3.31-7.63-3.31-3.17,0-6,1.28-8.46,3.83-2.47,2.55-3.7,5.42-3.7,8.59,0,.72.62,1.09,1.86,1.09,5.11,0,11.21-.52,18.32-1.55,2-.28,3-.62,3-1.04Z"/>
      <path d="M1108.53,357.68c0,.14-.05.45-.16.93-1.35,7.9-2.02,14.72-2.02,20.44,0,.35.43,8.09,1.29,23.24l.05.72c.03,1-.42,1.5-1.37,1.5s-2.38.11-4.3.34c-1.91.22-3.34.34-4.27.34-.66,0-1.16-1.21-1.5-3.62-.35-2.42-.67-3.62-.98-3.62-.21,0-1.14.67-2.79,2.02-2.04,1.66-3.93,2.92-5.69,3.78-2.73,1.38-5.45,2.07-8.18,2.07-6.69,0-12.34-2.67-16.92-8.02-4.35-5.11-6.52-11.06-6.52-17.86,0-7.66,2.19-13.99,6.57-19,4.59-5.21,10.63-7.81,18.12-7.81,5.28,0,9.89,1.83,13.82,5.49.59.69,1.5,1.69,2.74,3,.1.1.21.15.31.15.21,0,.5-1.09.88-3.26.38-2.17.86-3.26,1.45-3.26.93,0,2.67.26,5.23.78,2.83.62,4.24,1.17,4.24,1.66ZM1095.33,379.32c0-4.24-1.26-7.88-3.78-10.92-2.66-3.28-6.06-4.92-10.2-4.92s-7.59,1.62-10.35,4.87c-2.66,3.11-3.99,6.76-3.99,10.97s1.33,7.8,3.99,10.87c2.76,3.21,6.21,4.81,10.35,4.81s7.42-1.64,10.14-4.92c2.55-3.07,3.83-6.66,3.83-10.77Z"/>
      <path d="M1145.22,388.58c0,5.14-2.05,9.27-6.16,12.37-3.73,2.83-8.26,4.24-13.61,4.24-2.07,0-3.24-.05-3.52-.16-.59-.28-.88-1.12-.88-2.54,0-.76-.1-1.9-.28-3.42-.19-1.52-.29-2.64-.29-3.37,0-.45.31-.74.93-.88.45-.1,1.09-.1,1.92,0,1.07.1,1.59.15,1.55.15,6.52,0,9.78-2,9.78-6,0-1.9-1.43-3.64-4.3-5.23-4.66-2.55-7.33-4.12-8.02-4.71-2.86-2.45-4.3-5.66-4.3-9.63,0-5.18,1.95-9.21,5.85-12.11,3.52-2.59,7.97-3.88,13.35-3.88.48,0,.84.22,1.06.67.22.45.66,1.85,1.29,4.19.64,2.35.96,3.76.96,4.24,0,.38-.33.62-.98.72-2.21.31-4.43.6-6.68.88-2.66.72-3.99,2.17-3.99,4.35,0,1.55,1.4,3.12,4.19,4.71,4.14,2.31,6.76,3.98,7.87,5.02,2.83,2.69,4.24,6.14,4.24,10.35Z"/>
      <path d="M1234.68,342.52c0,.66-.36.98-1.09.98-2.69,0-7.11-.16-13.25-.47-5.73-.28-10.14-.38-13.25-.31l-3.78.05c-2.42.03-3.69.09-3.83.15-.69.28-1.04,1.36-1.04,3.26v12.47c0,2.35.5,3.52,1.5,3.52,3.35,0,8.39-.15,15.14-.46s11.79-.47,15.14-.47c.72,0,1.09.28,1.09.83,0,.59-.04,1.46-.13,2.61-.09,1.16-.13,2.03-.13,2.61,0,.62.03,1.56.1,2.82.07,1.26.1,2.2.1,2.82,0,.41-.36.62-1.09.62-2.38,0-6-.07-10.84-.21-4.85-.14-8.48-.21-10.89-.21-4.45,0-6.97.04-7.56.1-1.55.17-2.33.81-2.33,1.92,0,3.11.09,7.76.26,13.97.17,6.21.26,10.87.26,13.97,0,1.04-.41,1.55-1.24,1.55-.69,0-1.72-.08-3.08-.23-1.36-.16-2.41-.23-3.13-.23-.59,0-1.48.05-2.69.16-1.21.1-2.11.15-2.69.15-.86,0-1.29-.38-1.29-1.14,0-3.83.16-9.59.49-17.29.33-7.69.49-13.46.49-17.29,0-3.55-.36-15.11-1.09-34.68v-.67c-.04-.72.4-1.14,1.29-1.24.28,0,2.47.05,6.57.15,5.42.1,10.44.12,15.06.05,6.25-.07,14.2-.41,23.86-1.04,1.31-.1,2.05.46,2.23,1.71-.04.93.03,2.35.21,4.24.41,2.66.62,4.38.62,5.18Z"/>
      <path d="M1258.84,342.62c0,4.24-2.36,6.37-7.09,6.37s-7.19-2.12-7.19-6.37c0-1.9.74-3.47,2.23-4.71,1.38-1.17,3.04-1.76,4.97-1.76s3.6.6,5,1.81c1.4,1.21,2.1,2.76,2.1,4.66ZM1258.48,356.65c0,2.66-.16,6.67-.49,12.03-.33,5.37-.49,9.39-.49,12.09,0,2.52.05,6.29.16,11.31s.16,8.77.16,11.26c0,.72-.31,1.09-.93,1.09h-10.09c-.72,0-1.09-.71-1.09-2.12,0-2.38.06-5.96.18-10.74.12-4.78.18-8.38.18-10.79,0-2.69-.2-6.73-.59-12.11-.4-5.38-.6-9.42-.6-12.11,0-.59.36-.88,1.09-.88.62,0,1.58.09,2.87.26,1.29.17,2.27.26,2.92.26s1.63-.09,2.92-.26c1.29-.17,2.27-.26,2.92-.26.59,0,.88.33.88.98Z"/>
      <path d="M1318.35,403.49c0,.76-.35,1.14-1.04,1.14-1.14,0-2.84-.02-5.1-.05-2.26-.04-3.96-.05-5.1-.05-.62,0-.93-.5-.93-1.5,0-1.69.05-4.26.16-7.71.1-3.45.16-6.04.16-7.76,0-1.38-.02-3.44-.05-6.18-.04-2.74-.05-4.8-.05-6.18,0-3.93-.57-6.71-1.71-8.33-1.38-1.93-3.93-2.9-7.66-2.9-1.73,0-4.12.97-7.19,2.9-3.24,2.04-4.87,3.85-4.87,5.44v31.05c0,.86-.33,1.29-.98,1.29-1.1,0-2.76-.02-4.97-.05-2.21-.04-3.87-.05-4.97-.05-.72,0-1.09-.4-1.09-1.19,0-2.73.04-6.81.13-12.27.09-5.45.13-9.56.13-12.32,0-7.35-.78-14.13-2.33-20.34-.1-.31-.16-.54-.16-.67,0-.34.22-.59.67-.72.24-.03,2.22-.35,5.93-.96s5.65-.91,5.82-.91c.21,0,.34.28.41.83.17,2.14.57,4.3,1.19,6.47,1.79-1.42,4.16-3.17,7.09-5.28,3.62-2.21,7.12-3.31,10.51-3.31,6.49,0,10.92,1.88,13.3,5.64,1.76,2.76,2.64,7.23,2.64,13.41,0,1.07-.03,2.71-.08,4.92-.05,2.21-.08,3.87-.08,4.97,0,2.31.03,5.76.1,10.35.07,4.59.1,8.04.1,10.35Z"/>
      <path d="M1381.96,332.32c0,4.45-.2,11.12-.59,20-.4,8.88-.6,15.54-.6,19.95,0,13.63.29,23.95.88,30.95l.05.67c.03.35-.43.57-1.4.67-.66.07-1.59.07-2.79,0-1.45-.1-2.12-.16-2.02-.16-.52,0-1.28.05-2.28.16-1,.1-1.76.15-2.28.15-.48,0-.77-1.2-.85-3.6-.09-2.4-.22-3.61-.39-3.65-.21.1-.47.33-.78.67-4.73,5.11-10.16,7.66-16.3,7.66-6.97,0-12.7-2.66-17.18-7.97-4.24-5-6.37-11.04-6.37-18.12s2.14-13.53,6.42-18.53c4.49-5.25,10.33-7.87,17.55-7.87,4.35,0,8.14,1.28,11.39,3.83,1.48,1.28,2.95,2.57,4.4,3.88.28-.1.41-.34.41-.72v-16.77c0-1.14-.05-2.86-.16-5.18-.1-2.31-.16-4.05-.16-5.23,0-.83.28-1.24.83-1.24,1.28,0,3.17-.11,5.69-.34,2.52-.22,4.4-.34,5.64-.34.59,0,.88.36.88,1.09ZM1369.02,379.42c0-4.14-1.28-7.78-3.83-10.92-2.73-3.35-6.11-5.02-10.14-5.02-4.24,0-7.75,1.66-10.51,4.97-2.62,3.11-3.93,6.83-3.93,11.18s1.36,7.75,4.09,10.82c2.79,3.24,6.25,4.87,10.35,4.87s7.56-1.64,10.25-4.92c2.48-3.07,3.73-6.73,3.73-10.97Z"/>
      <path d="M1471.57,341.69c0,.9-.31,1.35-.93,1.35-.97,0-7.07-.21-18.32-.62-.31,10.53-.47,18.96-.47,25.31,0,3.97.15,9.92.44,17.86.29,7.94.44,13.89.44,17.86,0,.72-.5,1.09-1.5,1.09-.62,0-1.57-.05-2.85-.15-1.28-.1-2.24-.16-2.9-.16-.62,0-1.57.05-2.85.16-1.28.1-2.23.15-2.85.15-.86,0-1.29-.43-1.29-1.29,0-3.93.16-9.84.49-17.73.33-7.88.49-13.81.49-17.78,0-6.14-.19-14.58-.57-25.31-8.9.55-15.42.83-19.56.83-.41,0-.62-.17-.62-.52,0-.62.16-1.52.47-2.69.38-1.52.6-2.41.67-2.69.07-1.21.31-2.88.72-5.02.17-.45.47-.67.88-.67l.62.05c12.21.72,20.27,1.09,24.17,1.09,3.45,0,9.09-.26,16.92-.78,5.35-.35,7.57-.52,6.68-.52.9,0,1.4.31,1.5.93-.07-.38-.1,1.29-.1,5.02,0,.45.05,1.15.16,2.1.1.95.16,1.67.16,2.15Z"/>
      <path d="M1526.95,402.71c0,1.28-.36,1.91-1.09,1.91-1.07,0-2.69-.02-4.87-.05-2.17-.04-3.8-.05-4.87-.05-.86,0-1.29-.57-1.29-1.71,0-1.66.06-4.16.18-7.51.12-3.35.18-5.87.18-7.56,0-1.59-.06-3.99-.18-7.22-.12-3.23-.18-5.65-.18-7.27,0-6.21-2.93-9.32-8.8-9.32-1.9,0-4.38.95-7.45,2.85-3.28,2.04-4.92,3.9-4.92,5.59v30.74c0,1-.36,1.5-1.09,1.5-1.07,0-2.67-.02-4.81-.05-2.14-.04-3.74-.05-4.81-.05-.79,0-1.19-.46-1.19-1.4v-25c0-4.07-.22-12.73-.67-25.98-.07-4.11-.36-10.18-.88-18.22-.07-.41-.1-.69-.1-.83,0-.59.21-.95.62-1.09.59-.21,2.54-.31,5.85-.31.72,0,1.81-.13,3.26-.39s2.5-.39,3.16-.39c.45,0,.67.33.67.98,0,3.24-.13,8.12-.39,14.62-.26,6.5-.39,11.38-.39,14.62,0,.79.14,1.21.41,1.24,1.76-1.48,4.04-3.28,6.83-5.38,3.38-2.1,6.95-3.16,10.71-3.16,6.49,0,10.96,1.93,13.41,5.8,1.76,2.83,2.64,7.31,2.64,13.46,0,1.07-.03,2.72-.08,4.94-.05,2.23-.08,3.87-.08,4.94,0,2.21.03,5.5.1,9.89.07,4.38.1,7.66.1,9.83Z"/>
      <path d="M1584.75,376.73c0,2.55-1.1,4.26-3.31,5.12-1.48.55-12.16,1.57-32.04,3.05.45,3.04,2.12,5.62,5.02,7.76,2.76,2.04,5.73,3.05,8.9,3.05,5.45,0,10.46-1.76,15.01-5.28.55-.45,1.1-.9,1.66-1.35.28,0,.46.04.54.1.08.07.73,1.27,1.94,3.6,1.21,2.33,1.81,3.58,1.81,3.75,0,.21-.28.6-.83,1.19-5.07,5.38-11.58,8.07-19.51,8.07s-14.39-2.39-19.15-7.17c-4.76-4.78-7.14-11.15-7.14-19.12,0-7.11,2.28-13.3,6.83-18.58,4.8-5.49,10.68-8.23,17.65-8.23,6.49,0,11.9,2.38,16.25,7.14,4.24,4.62,6.37,10.25,6.37,16.87ZM1572.43,373.57c0-2.86-1.13-5.4-3.39-7.61-2.26-2.21-4.81-3.31-7.63-3.31-3.17,0-6,1.28-8.46,3.83-2.47,2.55-3.7,5.42-3.7,8.59,0,.72.62,1.09,1.86,1.09,5.11,0,11.21-.52,18.32-1.55,2-.28,3-.62,3-1.04Z"/>
      <path d="M1609.48,342.62c0,4.24-2.36,6.37-7.09,6.37s-7.19-2.12-7.19-6.37c0-1.9.74-3.47,2.23-4.71,1.38-1.17,3.04-1.76,4.97-1.76s3.6.6,5,1.81c1.4,1.21,2.1,2.76,2.1,4.66ZM1609.12,356.65c0,2.66-.16,6.67-.49,12.03-.33,5.37-.49,9.39-.49,12.09,0,2.52.05,6.29.16,11.31s.16,8.77.16,11.26c0,.72-.31,1.09-.93,1.09h-10.09c-.72,0-1.09-.71-1.09-2.12,0-2.38.06-5.96.18-10.74.12-4.78.18-8.38.18-10.79,0-2.69-.2-6.73-.59-12.11-.4-5.38-.6-9.42-.6-12.11,0-.59.36-.88,1.09-.88.62,0,1.58.09,2.87.26,1.29.17,2.27.26,2.92.26s1.63-.09,2.92-.26c1.29-.17,2.27-.26,2.92-.26.59,0,.88.33.88.98Z"/>
      <path d="M1653,355.92c0,3.79-.26,7.25-.78,10.35-.1.79-.45,1.19-1.04,1.19-.72,0-1.82-.08-3.29-.23-1.47-.16-2.58-.23-3.34-.23-4.35,0-7.13,1.22-8.33,3.67-.72,1.48-1.09,4.57-1.09,9.27v5.69c0,1.93.08,4.87.23,8.8.15,3.93.23,6.87.23,8.8,0,.93-.4,1.4-1.19,1.4-1.07,0-2.69-.02-4.87-.05-2.17-.04-3.8-.05-4.87-.05-.79,0-1.19-.43-1.19-1.29,0-2.79.04-7,.13-12.63.09-5.62.13-9.85.13-12.68,0-8.52-.79-15.37-2.38-20.55-.07-.28-.1-.48-.1-.62,0-.41.22-.71.67-.88,1.28-.14,3.07-.34,5.38-.62,3.73-.69,5.45-1.04,5.18-1.04.55,0,.91,1.02,1.09,3.05.17,2.04.48,3.05.93,3.05.07,0,.16-.03.26-.1,1.41-.9,2.83-1.79,4.24-2.69,1.55-.93,3.14-1.62,4.76-2.07,1.35-.41,3.07-.62,5.18-.62,2.69,0,4.04.36,4.04,1.09Z"/>
      <path d="M1777.04,358.41c0,.28-3.45,7.66-10.35,22.15-2.31,5.04-5.85,12.56-10.61,22.57-.45.93-.92,1.4-1.4,1.4h-9.32c-.66,0-1.19-.46-1.6-1.4-2.55-6-6.23-15.46-11.02-28.36-2.38,6.35-6.09,15.8-11.13,28.36-.38.93-.9,1.4-1.55,1.4h-9.26c-.52,0-1-.46-1.45-1.4-2.38-5-5.95-12.53-10.71-22.57-6.59-13.73-9.89-21.12-9.89-22.15,0-2.83.09-7.09.26-12.79.17-5.69.26-9.95.26-12.78,0-.62.43-.93,1.29-.93.62,0,1.56.05,2.82.15s2.2.16,2.82.16c.59,0,1.47-.04,2.64-.1,1.17-.07,2.05-.1,2.64-.1.72,0,1.09.26,1.09.78,0,2.79-.16,7.01-.49,12.66s-.49,9.86-.49,12.66c0,1.76,3.48,9.73,10.46,23.91,2.31,4.69,3.57,7.04,3.78,7.04.07-.04.16-.16.26-.36.41-.79,1.29-3,2.64-6.62,2.48-6.73,5.04-14.37,7.66-22.93.1-.86.16-3.59.16-8.18,0-2.04-.06-5.08-.18-9.14-.12-4.05-.18-7.1-.18-9.14,0-.52.36-.78,1.09-.78.66,0,1.64.05,2.95.15,1.31.1,2.31.16,3,.16.59,0,1.47-.05,2.64-.16,1.17-.1,2.05-.15,2.64-.15.79,0,1.19.28,1.19.83,0,2.17-.07,5.44-.21,9.81-.14,4.37-.21,7.63-.21,9.81,0,3.55.02,5.71.05,6.47.1,1.72,2.71,9.3,7.82,22.72.55,1.52,1.45,3.69,2.69,6.52.03.14.1.26.21.36.21,0,1.43-2.29,3.67-6.88,6.8-13.9,10.2-21.75,10.2-23.55,0-2.83-.16-7.06-.47-12.68-.31-5.62-.47-9.83-.47-12.63,0-.52.14-.78.41-.78.69,0,1.72.05,3.08.15s2.39.16,3.08.16c.62,0,1.57-.05,2.85-.16,1.28-.1,2.24-.15,2.9-.15.72,0,1.14.21,1.24.62,0-.04,0,.45,0,1.45,0,2.73.09,6.8.26,12.21.17,5.42.26,9.49.26,12.21Z"/>
      <path d="M1839.76,357.68c0,.14-.05.45-.16.93-1.35,7.9-2.02,14.72-2.02,20.44,0,.35.43,8.09,1.29,23.24l.05.72c.03,1-.42,1.5-1.37,1.5s-2.38.11-4.3.34c-1.91.22-3.34.34-4.27.34-.66,0-1.16-1.21-1.5-3.62-.35-2.42-.67-3.62-.98-3.62-.21,0-1.14.67-2.79,2.02-2.04,1.66-3.93,2.92-5.69,3.78-2.73,1.38-5.45,2.07-8.18,2.07-6.69,0-12.34-2.67-16.92-8.02-4.35-5.11-6.52-11.06-6.52-17.86,0-7.66,2.19-13.99,6.57-19,4.59-5.21,10.63-7.81,18.12-7.81,5.28,0,9.89,1.83,13.82,5.49.59.69,1.5,1.69,2.74,3,.1.1.21.15.31.15.21,0,.5-1.09.88-3.26.38-2.17.86-3.26,1.45-3.26.93,0,2.67.26,5.23.78,2.83.62,4.24,1.17,4.24,1.66ZM1826.56,379.32c0-4.24-1.26-7.88-3.78-10.92-2.66-3.28-6.06-4.92-10.2-4.92s-7.59,1.62-10.35,4.87c-2.66,3.11-3.99,6.76-3.99,10.97s1.33,7.8,3.99,10.87c2.76,3.21,6.21,4.81,10.35,4.81s7.42-1.64,10.14-4.92c2.55-3.07,3.83-6.66,3.83-10.77Z"/>
      <path d="M1895.8,368.5c0,5.83-.17,9.35-.52,10.56-.45,1.55-4.72,8.33-12.81,20.32s-12.9,18.69-14.41,20.11c-1.38,1.24-5.83,1.86-13.35,1.86-.9,0-1.47-.1-1.73-.29-.26-.19-.85-1.44-1.76-3.75-.91-2.31-1.37-3.69-1.37-4.14,0-.76.91-1.14,2.74-1.14,3.86,0,6.71-.55,8.54-1.66.62-.38,1.56-1.57,2.82-3.57,1.26-2,1.89-3.35,1.89-4.04,0-.93-2.5-4.57-7.5-10.92-5.28-6.73-8.23-10.99-8.85-12.79-.48-1.41-.72-4.79-.72-10.14,0-1.31.02-3.29.05-5.93.03-2.64.05-4.63.05-5.98,0-.76.41-1.14,1.24-1.14,1.1,0,2.73.07,4.89.21,2.16.14,3.79.21,4.89.21.55,0,.83.36.83,1.09,0,.97-.05,2.42-.16,4.35-.1,1.93-.16,3.38-.16,4.35,0,4.21.14,7.35.41,9.42.21,1.31,2.09,4.57,5.64,9.78,3.55,5.21,5.75,7.82,6.57,7.82.59,0,2.45-2.56,5.59-7.69,3.14-5.12,4.81-8.29,5.02-9.5.28-1.73.41-4.87.41-9.42,0-1-.1-2.48-.31-4.43s-.31-3.41-.31-4.37c0-.86.28-1.29.83-1.29,1.1,0,2.77-.08,5-.23,2.22-.16,3.89-.23,4.99-.23,1.04,0,1.55,4.19,1.55,12.58Z"/>
    </g>
  </g>
</svg>